<svg width="450" height="280" viewBox="0 0 450 280" fill="none" xmlns="http://www.w3.org/2000/svg">
<g clip-path="url(#clip0)">
<g opacity="0.9" filter="url(#filter0_d)">
<rect x="81" width="288" height="232" rx="16" fill="url(#paint0_linear)"/>
</g>
<path d="M81 27.2349H369V28.2436H81V27.2349Z" fill="#231225"/>
<rect x="93.042" y="8.06934" width="12.0418" height="12.1043" rx="6.02091" fill="#231225"/>
<rect x="115.119" y="8.06934" width="12.0418" height="12.1043" rx="6.02091" fill="#231225"/>
<rect x="137.195" y="8.06934" width="12.0418" height="12.1043" rx="6.02091" fill="#231225"/>
<g filter="url(#filter1_d)">
<rect x="145" y="200" width="169.357" height="44.5186" rx="8.71736" fill="#231225"/>
<path d="M166.617 214.924H169.438V229.594H166.617V214.924Z" fill="#231225" fill-opacity="0.16"/>
<path fill-rule="evenodd" clip-rule="evenodd" d="M160.533 215.748V217.181C160.533 217.425 160.731 217.623 160.975 217.623C161.218 217.623 161.416 217.425 161.416 217.181V216.631L160.533 215.748ZM166.176 216.603V215.366H164.938L164.055 214.483H166.617H170.002H175.645C175.889 214.483 176.086 214.68 176.086 214.924V217.181C176.086 217.425 175.889 217.623 175.645 217.623C175.401 217.623 175.204 217.425 175.204 217.181V215.366H173.952V215.364H169.438V215.366H167.058V217.486L166.176 216.603ZM166.176 221.391V229.153H164.36C164.116 229.153 163.919 229.351 163.919 229.595C163.919 229.838 164.116 230.036 164.36 230.036H166.617H170.002H172.259C172.503 230.036 172.701 229.838 172.701 229.595C172.701 229.351 172.503 229.153 172.259 229.153H170.444V225.659L169.561 224.776V229.153H167.058V222.274L166.176 221.391ZM169.561 219.989L170.444 220.871V216.617H169.561V219.989ZM178.343 228.771L177.461 227.888V214.924C177.461 214.68 177.658 214.483 177.902 214.483C178.146 214.483 178.343 214.68 178.343 214.924V228.771Z" fill="#484852"/>
<path d="M161.539 214.36L177.338 230.159" stroke="#484852" stroke-width="0.882653" stroke-linecap="round"/>
<path d="M200.57 218.31H202.827V226.209H200.57V218.31Z" fill="#231225" fill-opacity="0.16"/>
<path d="M204.151 226.283L203.994 226.695L204.151 226.283ZM204.151 218.235L203.994 217.823L204.151 218.235ZM215.041 230.431L215.198 230.019L215.041 230.431ZM204.308 218.648L215.198 214.499L214.884 213.674L203.994 217.823L204.308 218.648ZM215.198 230.019L204.308 225.87L203.994 226.695L214.884 230.844L215.198 230.019ZM203.749 225.768H201.135V226.65H203.749V225.768ZM200.448 225.08V219.438H199.566V225.08H200.448ZM201.135 218.751H203.392V217.868H201.135V218.751ZM203.392 218.751H203.749V217.868H203.392V218.751ZM202.951 218.309V224.516H203.834V218.309H202.951ZM215.364 214.614V218.309H216.247V214.614H215.364ZM217.621 221.961V222.557H218.504V221.961H217.621ZM215.364 218.309V226.209H216.247V218.309H215.364ZM215.364 226.209V229.904H216.247V226.209H215.364ZM217.621 222.557C217.621 223.936 216.842 225.197 215.608 225.814L216.003 226.604C217.536 225.837 218.504 224.271 218.504 222.557H217.621ZM215.608 218.704C216.842 219.321 217.621 220.582 217.621 221.961H218.504C218.504 220.248 217.536 218.681 216.003 217.915L215.608 218.704ZM204.308 225.87C204.129 225.802 203.94 225.768 203.749 225.768V226.65C203.832 226.65 203.915 226.665 203.994 226.695L204.308 225.87ZM203.994 217.823C203.915 217.853 203.832 217.868 203.749 217.868V218.751C203.94 218.751 204.129 218.716 204.308 218.648L203.994 217.823ZM201.135 225.768C200.756 225.768 200.448 225.46 200.448 225.08H199.566C199.566 225.947 200.268 226.65 201.135 226.65V225.768ZM214.884 230.844C215.542 231.094 216.247 230.608 216.247 229.904H215.364C215.364 229.99 215.278 230.05 215.198 230.019L214.884 230.844ZM215.198 214.499C215.278 214.469 215.364 214.528 215.364 214.614H216.247C216.247 213.91 215.542 213.424 214.884 213.674L215.198 214.499ZM200.448 219.438C200.448 219.058 200.756 218.751 201.135 218.751V217.868C200.268 217.868 199.566 218.571 199.566 219.438H200.448Z" fill="#484852"/>
<path d="M253.145 225.08L250.888 227.337L245.245 219.438L241.86 223.388V229.03H255.966L253.145 225.08Z" fill="#231225" fill-opacity="0.16"/>
<path fill-rule="evenodd" clip-rule="evenodd" d="M258.222 212.226C257.979 212.226 257.781 212.423 257.781 212.667V214.924V228.466C257.781 228.845 257.473 229.153 257.094 229.153H256.186L252.933 224.816C252.856 224.713 252.739 224.649 252.611 224.64C252.484 224.631 252.358 224.678 252.268 224.768L250.379 226.657L245.04 219.181C244.961 219.071 244.836 219.003 244.7 218.997C244.564 218.991 244.434 219.048 244.345 219.151L241.736 222.195V216.052C241.736 215.673 242.044 215.365 242.423 215.365H256.53V214.483H242.423C241.556 214.483 240.854 215.185 240.854 216.052V223.385V223.39V229.153H239.038C238.794 229.153 238.597 229.351 238.597 229.594C238.597 229.838 238.794 230.036 239.038 230.036H240.854V231.851C240.854 232.095 241.051 232.293 241.295 232.293C241.539 232.293 241.736 232.095 241.736 231.851V229.594V223.551L244.649 220.153L249.964 227.594C250.039 227.699 250.157 227.766 250.287 227.777C250.416 227.788 250.543 227.741 250.635 227.649L252.532 225.752L255.083 229.153H242.988V230.036H255.961H255.971H257.094C257.961 230.036 258.664 229.333 258.664 228.466V215.365H260.479C260.723 215.365 260.921 215.168 260.921 214.924C260.921 214.68 260.723 214.483 260.479 214.483H258.664V212.667C258.664 212.423 258.466 212.226 258.222 212.226ZM251.893 219.438C251.893 218.435 252.706 217.622 253.708 217.622C254.711 217.622 255.524 218.435 255.524 219.438C255.524 220.441 254.711 221.254 253.708 221.254C252.706 221.254 251.893 220.441 251.893 219.438ZM253.708 216.74C252.218 216.74 251.01 217.948 251.01 219.438C251.01 220.928 252.218 222.136 253.708 222.136C255.199 222.136 256.407 220.928 256.407 219.438C256.407 217.948 255.199 216.74 253.708 216.74Z" fill="#7650FF"/>
<path d="M289.354 214.924H298.382V221.695L289.354 214.924Z" fill="#231225" fill-opacity="0.16"/>
<path d="M281.454 222.823L290.482 229.594H281.454V222.823Z" fill="#231225" fill-opacity="0.16"/>
<path d="M281.454 214.924H285.968M281.454 214.924V219.438M281.454 214.924L298.382 229.594M298.382 229.594V225.08M298.382 229.594H293.868M290.482 229.594H282.583C281.959 229.594 281.454 229.089 281.454 228.466V222.823M298.382 221.695V216.052C298.382 215.429 297.876 214.924 297.253 214.924H289.354" stroke="#484852" stroke-width="0.882653" stroke-linecap="round" stroke-linejoin="round"/>
</g>
<g filter="url(#filter2_ddd)">
<rect x="48" y="49.0713" width="215.998" height="116.999" rx="7.18197" fill="#231225"/>
<rect x="48.5064" y="49.5777" width="214.985" height="115.986" rx="6.6756" stroke="#231225" stroke-width="1.01275"/>
</g>
<circle cx="155.099" cy="105.771" r="17.7791" fill="#7650FF"/>
<path d="M162.911 107.146L151.628 113.499C150.829 113.949 149.831 113.385 149.831 112.487V99.7803C149.831 98.8821 150.829 98.3185 151.628 98.7676L162.911 105.121C163.71 105.57 163.71 106.697 162.911 107.146Z" fill="#231225"/>
<path d="M58.0107 155.263H254.309V59.5421H58.0107V155.263Z" stroke="#7650FF" stroke-width="0.529025" stroke-linejoin="round" stroke-dasharray="5.29 1.32"/>
<path d="M182.998 155.263H254.308V113.658H182.998V155.263Z" stroke="#7650FF" stroke-width="0.529025" stroke-linejoin="round"/>
<rect x="56.6885" y="58.8823" width="11.9031" height="1.98384" fill="#7650FF"/>
<rect x="56.6885" y="58.8823" width="1.98384" height="11.9031" fill="#7650FF"/>
<rect x="56.6885" y="154.278" width="11.9031" height="1.98384" fill="#7650FF"/>
<rect x="56.6885" y="144.359" width="1.98384" height="11.9031" fill="#7650FF"/>
<rect x="243.405" y="58.8809" width="11.9031" height="1.98384" fill="#7650FF"/>
<rect x="253.325" y="58.8813" width="1.98384" height="11.9031" fill="#7650FF"/>
<rect x="243.405" y="154.278" width="11.9031" height="1.98384" fill="#7650FF"/>
<rect x="253.324" y="144.358" width="1.98384" height="11.9031" fill="#7650FF"/>
<g filter="url(#filter3_ddd)">
<rect x="282.832" y="102.071" width="120" height="65" rx="3.99002" fill="#231225"/>
<rect x="283.113" y="102.353" width="119.437" height="64.4374" rx="3.7087" stroke="#231225" stroke-width="0.562642"/>
</g>
<circle cx="342.332" cy="133.571" r="14.5" fill="#7650FF"/>
<path d="M348.704 134.911L339.502 140.092C338.85 140.458 338.036 139.999 338.036 139.266V128.903C338.036 128.171 338.85 127.711 339.502 128.077L348.704 133.259C349.356 133.625 349.356 134.544 348.704 134.911Z" fill="#231225"/>
<line x1="290.832" y1="108.575" x2="395.832" y2="108.575" stroke="#EFEDFF" stroke-width="2.99251" stroke-dasharray="4.99 2.99"/>
<line x1="290.832" y1="160.575" x2="395.832" y2="160.575" stroke="#EFEDFF" stroke-width="2.99251" stroke-dasharray="4.99 2.99"/>
</g>
<defs>
<filter id="filter0_d" x="-25" y="-59" width="500" height="444" filterUnits="userSpaceOnUse" color-interpolation-filters="sRGB">
<feFlood flood-opacity="0" result="BackgroundImageFix"/>
<feColorMatrix in="SourceAlpha" type="matrix" values="0 0 0 0 0 0 0 0 0 0 0 0 0 0 0 0 0 0 127 0"/>
<feOffset dy="47"/>
<feGaussianBlur stdDeviation="53"/>
<feColorMatrix type="matrix" values="0 0 0 0 0 0 0 0 0 0 0 0 0 0 0 0 0 0 0.02 0"/>
<feBlend mode="normal" in2="BackgroundImageFix" result="effect1_dropShadow"/>
<feBlend mode="normal" in="SourceGraphic" in2="effect1_dropShadow" result="shape"/>
</filter>
<filter id="filter1_d" x="121" y="192" width="217.357" height="92.5186" filterUnits="userSpaceOnUse" color-interpolation-filters="sRGB">
<feFlood flood-opacity="0" result="BackgroundImageFix"/>
<feColorMatrix in="SourceAlpha" type="matrix" values="0 0 0 0 0 0 0 0 0 0 0 0 0 0 0 0 0 0 127 0"/>
<feOffset dy="16"/>
<feGaussianBlur stdDeviation="12"/>
<feColorMatrix type="matrix" values="0 0 0 0 0 0 0 0 0 0 0 0 0 0 0 0 0 0 0.13 0"/>
<feBlend mode="normal" in2="BackgroundImageFix" result="effect1_dropShadow"/>
<feBlend mode="normal" in="SourceGraphic" in2="effect1_dropShadow" result="shape"/>
</filter>
<filter id="filter2_ddd" x="-26.3012" y="10.9166" width="364.601" height="295.724" filterUnits="userSpaceOnUse" color-interpolation-filters="sRGB">
<feFlood flood-opacity="0" result="BackgroundImageFix"/>
<feColorMatrix in="SourceAlpha" type="matrix" values="0 0 0 0 0 0 0 0 0 0 0 0 0 0 0 0 0 0 127 0"/>
<feOffset dy="66.2687"/>
<feGaussianBlur stdDeviation="37.1506"/>
<feColorMatrix type="matrix" values="0 0 0 0 0 0 0 0 0 0 0 0 0 0 0 0 0 0 0.01 0"/>
<feBlend mode="normal" in2="BackgroundImageFix" result="effect1_dropShadow"/>
<feColorMatrix in="SourceAlpha" type="matrix" values="0 0 0 0 0 0 0 0 0 0 0 0 0 0 0 0 0 0 127 0"/>
<feOffset dy="34.1384"/>
<feGaussianBlur stdDeviation="36.1465"/>
<feColorMatrix type="matrix" values="0 0 0 0 0 0 0 0 0 0 0 0 0 0 0 0 0 0 0.09 0"/>
<feBlend mode="normal" in2="effect1_dropShadow" result="effect2_dropShadow"/>
<feColorMatrix in="SourceAlpha" type="matrix" values="0 0 0 0 0 0 0 0 0 0 0 0 0 0 0 0 0 0 127 0"/>
<feOffset dy="16.0651"/>
<feGaussianBlur stdDeviation="18.0733"/>
<feColorMatrix type="matrix" values="0 0 0 0 0 0 0 0 0 0 0 0 0 0 0 0 0 0 0.03 0"/>
<feBlend mode="normal" in2="effect2_dropShadow" result="effect3_dropShadow"/>
<feBlend mode="normal" in="SourceGraphic" in2="effect3_dropShadow" result="shape"/>
</filter>
<filter id="filter3_ddd" x="241.553" y="80.8741" width="202.558" height="164.292" filterUnits="userSpaceOnUse" color-interpolation-filters="sRGB">
<feFlood flood-opacity="0" result="BackgroundImageFix"/>
<feColorMatrix in="SourceAlpha" type="matrix" values="0 0 0 0 0 0 0 0 0 0 0 0 0 0 0 0 0 0 127 0"/>
<feOffset dy="36.8162"/>
<feGaussianBlur stdDeviation="20.6394"/>
<feColorMatrix type="matrix" values="0 0 0 0 0 0 0 0 0 0 0 0 0 0 0 0 0 0 0.01 0"/>
<feBlend mode="normal" in2="BackgroundImageFix" result="effect1_dropShadow"/>
<feColorMatrix in="SourceAlpha" type="matrix" values="0 0 0 0 0 0 0 0 0 0 0 0 0 0 0 0 0 0 127 0"/>
<feOffset dy="18.9659"/>
<feGaussianBlur stdDeviation="20.0816"/>
<feColorMatrix type="matrix" values="0 0 0 0 0 0 0 0 0 0 0 0 0 0 0 0 0 0 0.09 0"/>
<feBlend mode="normal" in2="effect1_dropShadow" result="effect2_dropShadow"/>
<feColorMatrix in="SourceAlpha" type="matrix" values="0 0 0 0 0 0 0 0 0 0 0 0 0 0 0 0 0 0 127 0"/>
<feOffset dy="8.92515"/>
<feGaussianBlur stdDeviation="10.0408"/>
<feColorMatrix type="matrix" values="0 0 0 0 0 0 0 0 0 0 0 0 0 0 0 0 0 0 0.03 0"/>
<feBlend mode="normal" in2="effect2_dropShadow" result="effect3_dropShadow"/>
<feBlend mode="normal" in="SourceGraphic" in2="effect3_dropShadow" result="shape"/>
</filter>
<linearGradient id="paint0_linear" x1="-241.118" y1="-197" x2="813.11" y2="223.408" gradientUnits="userSpaceOnUse">
<stop stop-color="#FFD8F6"/>
<stop offset="0.776042" stop-color="#797EFF"/>
</linearGradient>
<clipPath id="clip0">
<rect width="450" height="280" fill="#231225"/>
</clipPath>
</defs>
</svg>
